<svg width="15" height="15" viewBox="0 0 15 15" fill="none" xmlns="http://www.w3.org/2000/svg">
<g clip-path="url(#clip0_100_307)">
<path fill-rule="evenodd" clip-rule="evenodd" d="M4.82143 1.07143C4.82143 0.479695 4.34173 0 3.75 0C3.15827 0 2.67857 0.479695 2.67857 1.07143V2.14286H1.60714C0.719542 2.14286 0 2.8624 0 3.75V5.35714H15V3.75C15 2.8624 14.2804 2.14286 13.3929 2.14286H12.3215V1.07143C12.3215 0.479695 11.8419 0 11.2501 0C10.6584 0 10.1787 0.479695 10.1787 1.07143V2.14286H4.82143V1.07143ZM15 6.69643H0V13.3929C0 14.2804 0.719542 15 1.60714 15H13.3929C14.2804 15 15 14.2804 15 13.3929V6.69643Z" fill="#C1C7C9"/>
</g>
<defs>
<clipPath id="clip0_100_307">
<rect width="15" height="15" fill="white"/>
</clipPath>
</defs>
</svg>
