<svg width="16" height="16" viewBox="0 0 16 16" fill="none" xmlns="http://www.w3.org/2000/svg">
<g clip-path="url(#clip0_34_1191)">
<path d="M5.90798 15.1322C5.17592 15.6046 4.30356 15.8104 3.4376 15.7151C2.57163 15.6199 1.76487 15.2294 1.15297 14.6093L0.618032 14.0862C0.383509 13.8463 0.252197 13.5241 0.252197 13.1887C0.252197 12.8531 0.383509 12.531 0.618032 12.2911L2.88855 10.0444C3.12642 9.81062 3.44659 9.67962 3.78011 9.67962C4.11363 9.67962 4.4338 9.81062 4.67168 10.0444C4.91156 10.2789 5.23371 10.4102 5.56919 10.4102C5.90466 10.4102 6.22681 10.2789 6.4667 10.0444L10.0329 6.47814C10.1519 6.3609 10.2464 6.22118 10.3109 6.0671C10.3754 5.91302 10.4086 5.74766 10.4086 5.58063C10.4086 5.4136 10.3754 5.24824 10.3109 5.09416C10.2464 4.94008 10.1519 4.80037 10.0329 4.68312C9.79918 4.44525 9.66818 4.12507 9.66818 3.79155C9.66818 3.45805 9.79918 3.13786 10.0329 2.89999L12.2915 0.641365C12.5314 0.406842 12.8536 0.27553 13.1891 0.27553C13.5246 0.27553 13.8467 0.406842 14.0866 0.641365L14.6096 1.17631C15.2297 1.78821 15.6202 2.59496 15.7155 3.46093C15.8107 4.32689 15.605 5.19925 15.1327 5.93131C12.6719 9.55788 9.54088 12.6808 5.90798 15.1322Z" fill="#7F8897"/>
</g>
<defs>
<clipPath id="clip0_34_1191">
<rect width="16" height="16" fill="white"/>
</clipPath>
</defs>
</svg>
