<svg width="15" height="15" viewBox="0 0 15 15" fill="none" xmlns="http://www.w3.org/2000/svg">
<path d="M7.5 9.37499C8.53553 9.37499 9.375 8.53552 9.375 7.49999C9.375 6.46446 8.53553 5.62499 7.5 5.62499C6.46447 5.62499 5.625 6.46446 5.625 7.49999C5.625 8.53552 6.46447 9.37499 7.5 9.37499Z" fill="#C1C7C9"/>
<path d="M1.25 8.04999V6.94999C1.25 6.29999 1.78125 5.76249 2.4375 5.76249C3.56875 5.76249 4.03125 4.96249 3.4625 3.98124C3.1375 3.41874 3.33125 2.68749 3.9 2.36249L4.98125 1.74374C5.475 1.44999 6.1125 1.62499 6.40625 2.11874L6.475 2.23749C7.0375 3.21874 7.9625 3.21874 8.53125 2.23749L8.6 2.11874C8.89375 1.62499 9.53125 1.44999 10.025 1.74374L11.1063 2.36249C11.675 2.68749 11.8687 3.41874 11.5437 3.98124C10.975 4.96249 11.4375 5.76249 12.5688 5.76249C13.2188 5.76249 13.7563 6.29374 13.7563 6.94999V8.04999C13.7563 8.69999 13.225 9.23749 12.5688 9.23749C11.4375 9.23749 10.975 10.0375 11.5437 11.0187C11.8687 11.5875 11.675 12.3125 11.1063 12.6375L10.025 13.2562C9.53125 13.55 8.89375 13.375 8.6 12.8812L8.53125 12.7625C7.96875 11.7812 7.04375 11.7812 6.475 12.7625L6.40625 12.8812C6.1125 13.375 5.475 13.55 4.98125 13.2562L3.9 12.6375C3.33125 12.3125 3.1375 11.5812 3.4625 11.0187C4.03125 10.0375 3.56875 9.23749 2.4375 9.23749C1.78125 9.23749 1.25 8.69999 1.25 8.04999Z" fill="#C1C7C9"/>
<path d="M7.5 9.37499C8.53553 9.37499 9.375 8.53552 9.375 7.49999C9.375 6.46446 8.53553 5.62499 7.5 5.62499C6.46447 5.62499 5.625 6.46446 5.625 7.49999C5.625 8.53552 6.46447 9.37499 7.5 9.37499Z" stroke="white" stroke-width="1.5" stroke-miterlimit="10" stroke-linecap="round" stroke-linejoin="round"/>
<path d="M1.25 8.04999V6.94999C1.25 6.29999 1.78125 5.76249 2.4375 5.76249C3.56875 5.76249 4.03125 4.96249 3.4625 3.98124C3.1375 3.41874 3.33125 2.68749 3.9 2.36249L4.98125 1.74374C5.475 1.44999 6.1125 1.62499 6.40625 2.11874L6.475 2.23749C7.0375 3.21874 7.9625 3.21874 8.53125 2.23749L8.6 2.11874C8.89375 1.62499 9.53125 1.44999 10.025 1.74374L11.1063 2.36249C11.675 2.68749 11.8687 3.41874 11.5437 3.98124C10.975 4.96249 11.4375 5.76249 12.5688 5.76249C13.2188 5.76249 13.7563 6.29374 13.7563 6.94999V8.04999C13.7563 8.69999 13.225 9.23749 12.5688 9.23749C11.4375 9.23749 10.975 10.0375 11.5437 11.0187C11.8687 11.5875 11.675 12.3125 11.1063 12.6375L10.025 13.2562C9.53125 13.55 8.89375 13.375 8.6 12.8812L8.53125 12.7625C7.96875 11.7812 7.04375 11.7812 6.475 12.7625L6.40625 12.8812C6.1125 13.375 5.475 13.55 4.98125 13.2562L3.9 12.6375C3.33125 12.3125 3.1375 11.5812 3.4625 11.0187C4.03125 10.0375 3.56875 9.23749 2.4375 9.23749C1.78125 9.23749 1.25 8.69999 1.25 8.04999Z" stroke="white" stroke-width="1.5" stroke-miterlimit="10" stroke-linecap="round" stroke-linejoin="round"/>
</svg>
