<svg width="15" height="15" viewBox="0 0 15 15" fill="none" xmlns="http://www.w3.org/2000/svg">
<g clip-path="url(#clip0_100_304)">
<path fill-rule="evenodd" clip-rule="evenodd" d="M0 4.66581C0 2.59474 1.67893 0.915802 3.75 0.915802H10.7143C11.0101 0.915802 11.25 1.15565 11.25 1.45152V2.94932H3.59515C3.22531 2.94932 2.9255 3.24913 2.9255 3.61897C2.9255 3.98879 3.22531 4.28861 3.59515 4.28861H11.721C11.7422 4.28861 11.7632 4.28761 11.7839 4.28568H12.013C12.4392 4.28568 12.8479 4.455 13.1493 4.75641C13.4507 5.0578 13.6201 5.46658 13.6201 5.89283V6.87445H10.4601C9.57673 6.87445 8.5851 7.54383 8.5851 8.69009V10.5956C8.5851 11.7418 9.57673 12.4112 10.4601 12.4112H13.6201V13.3928C13.6201 13.8191 13.4507 14.2278 13.1493 14.5292C12.8479 14.8306 12.4392 14.9999 12.013 14.9999L1.60714 15C1.1809 15 0.772119 14.8306 0.470721 14.5292C0.169323 14.2278 0 13.8191 0 13.3929V4.66581ZM10.4601 8.21374H14.2101C14.506 8.21374 14.7459 8.427 14.7459 8.69009V10.5956C14.7459 10.8586 14.506 11.0719 14.2101 11.0719H10.4601C10.1642 11.0719 9.92439 10.8586 9.92439 10.5956V8.69009C9.92439 8.427 10.1642 8.21374 10.4601 8.21374Z" fill="#C1C7C9"/>
</g>
<defs>
<clipPath id="clip0_100_304">
<rect width="15" height="15" fill="white"/>
</clipPath>
</defs>
</svg>
